HIERARCHY
ROOT Hips
{
	OFFSET 55.310501 45.591206 43.872097
	CHANNELS 6 Xposition Yposition Zposition Zrotation Xrotation Yrotation
	JOINT Chest
	{
		OFFSET -0.153500 1.163101 7.852402
		CHANNELS 6 Xposition Yposition Zposition Zrotation Xrotation Yrotation
		JOINT Chest2
		{
			OFFSET 0.000000 0.000000 3.343300
			CHANNELS 6 Xposition Yposition Zposition Zrotation Xrotation Yrotation
			JOINT Neck
			{
				OFFSET 0.000000 0.000000 7.785500
				CHANNELS 6 Xposition Yposition Zposition Zrotation Xrotation Yrotation
				JOINT Head
				{
					OFFSET 0.000000 0.000000 2.173901
					CHANNELS 6 Xposition Yposition Zposition Zrotation Xrotation Yrotation
					End Site
					{
						OFFSET 0.000000 0.000000 10.528198
					}
				}
			}
			JOINT LeftCollar
			{
				OFFSET 2.676300 -1.652401 4.938301
				CHANNELS 6 Xposition Yposition Zposition Zrotation Xrotation Yrotation
				JOINT LeftShoulder
				{
					OFFSET 4.299000 0.000000 0.000000
					CHANNELS 6 Xposition Yposition Zposition Zrotation Xrotation Yrotation
					JOINT LeftElbow
					{
						OFFSET 0.000000 0.000000 -10.245102
						CHANNELS 6 Xposition Yposition Zposition Zrotation Xrotation Yrotation
						JOINT LeftWrist
						{
							OFFSET 0.000000 0.000000 -12.703300
							CHANNELS 6 Xposition Yposition Zposition Zrotation Xrotation Yrotation
							End Site
							{
								OFFSET 0.000000 0.000000 -2.173901
							}
						}
					}
				}
			}
			JOINT RightCollar
			{
				OFFSET -2.534599 -1.686401 5.195000
				CHANNELS 6 Xposition Yposition Zposition Zrotation Xrotation Yrotation
				JOINT RightShoulder
				{
					OFFSET -4.144100 0.000000 0.000000
					CHANNELS 6 Xposition Yposition Zposition Zrotation Xrotation Yrotation
					JOINT RightElbow
					{
						OFFSET 0.000000 0.000000 -10.116501
						CHANNELS 6 Xposition Yposition Zposition Zrotation Xrotation Yrotation
						JOINT RightWrist
						{
							OFFSET 0.000000 0.000000 -12.937801
							CHANNELS 6 Xposition Yposition Zposition Zrotation Xrotation Yrotation
							End Site
							{
								OFFSET 0.000000 0.000000 -2.173901
							}
						}
					}
				}
			}
		}
	}
	JOINT LeftHip
	{
		OFFSET 2.175598 0.064499 -2.662899
		CHANNELS 6 Xposition Yposition Zposition Zrotation Xrotation Yrotation
		JOINT LeftKnee
		{
			OFFSET 0.000000 -0.000004 -18.585800
			CHANNELS 6 Xposition Yposition Zposition Zrotation Xrotation Yrotation
			JOINT LeftAnkle
			{
				OFFSET 0.000000 0.000000 -18.979500
				CHANNELS 6 Xposition Yposition Zposition Zrotation Xrotation Yrotation
				End Site
				{
					OFFSET 0.000000 -9.264000 0.000000
				}
			}
		}
	}
	JOINT RightHip
	{
		OFFSET -2.092400 -0.058102 -2.581200
		CHANNELS 6 Xposition Yposition Zposition Zrotation Xrotation Yrotation
		JOINT RightKnee
		{
			OFFSET 0.000000 -0.000004 -18.665001
			CHANNELS 6 Xposition Yposition Zposition Zrotation Xrotation Yrotation
			JOINT RightAnkle
			{
				OFFSET 0.000000 0.000000 -18.566601
				CHANNELS 6 Xposition Yposition Zposition Zrotation Xrotation Yrotation
				End Site
				{
					OFFSET 0.000000 -8.497601 0.000000
				}
			}
		}
	}
}
MOTION
Frames: 6
Frame Time: 0.041667
63.575600 -30.725193 32.689796 2988.218253 50.897231 -13.216755 -0.153498 1.163112 7.852406 16.016556 35.586635 -5.909996 -0.000002 0.000008 3.343301 -6.534405 -12.610508 -0.050215 0.000000 0.000001 7.785502 -6.028896 -3.128751 13.292404 -0.000003 0.000002 2.173898 -2.601233 -1.441085 -2.486575 2.676301 -1.652402 4.938305 21.673252 -2.009459 -3.241653 4.298995 0.000002 -0.000004 -95.058208 -36.356356 -72.976343 -0.000009 -0.000001 -10.245106 90.382910 652.204928 82.324318 -0.000002 0.000009 -12.703302 1370.803011 -195.952445 616.310426 -2.534593 -1.686398 5.195008 16.374670 13.925385 3.197912 -4.144100 0.000003 -0.000004 222.122970 174.629263 -104.767623 0.000010 0.000000 -10.116502 -176.951118 -164.173637 -187.683640 0.000006 0.000004 -12.937800 -701.076134 -17.552295 -16.967944 2.175593 0.064500 -2.662889 -616.170380 -40.324474 117.180515 -0.000013 -0.000004 -18.585814 38.375490 -211.336257 -88.213006 0.000001 -0.000011 -18.979488 748.943630 -8.017640 -712.332887 -2.092391 -0.058097 -2.581191 1320.634343 -27.862700 -107.545864 0.000005 -0.000002 -18.665003 -1521.198422 66.292430 -595.982964 0.000002 -0.000008 -18.566595 721.957662 -8.936098 1.013940
63.466705 -30.752087 32.578300 2988.187872 50.845725 -13.374097 -0.153503 1.163107 7.852399 16.069699 35.599349 -5.956289 0.000008 0.000010 3.343301 -6.482695 -12.708343 -0.042928 -0.000012 -0.000004 7.785504 -5.356226 -2.806871 12.586133 -0.000004 0.000000 2.173919 -3.253321 -1.439304 -1.809964 2.676291 -1.652396 4.938304 21.694187 -1.859462 -2.640013 4.299004 0.000003 -0.000011 -95.108158 -35.469309 -72.459926 -0.000004 0.000006 -10.245104 91.067541 652.148047 83.360936 0.000008 0.000003 -12.703296 1370.777111 -195.841085 616.496918 -2.534605 -1.686403 5.195001 16.315556 13.926087 2.744647 -4.144100 0.000003 0.000000 221.863573 174.219069 -103.805051 -0.000002 -0.000009 -10.116500 -177.013136 -164.177298 -187.665950 0.000011 0.000004 -12.937795 -700.746263 -17.586596 -17.186634 2.175591 0.064506 -2.662900 -615.898211 -40.194611 117.564098 0.000000 -0.000010 -18.585796 38.281585 -211.215841 -87.940270 -0.000012 -0.000007 -18.979490 749.077939 -8.052647 -712.349443 -2.092400 -0.058100 -2.581187 1320.514350 -27.866661 -107.944562 -0.000002 -0.000001 -18.665010 -1521.599600 66.107530 -595.454417 -0.000000 -0.000002 -18.566601 721.878868 -9.067725 1.147920
63.355095 -30.773792 32.472694 2988.149842 50.798805 -13.519285 -0.153507 1.163100 7.852417 16.096647 35.608488 -6.006107 0.000004 0.000004 3.343308 -6.409139 -12.829062 -0.033855 -0.000004 -0.000002 7.785500 -5.672355 -2.666058 12.542172 -0.000001 0.000002 2.173902 -3.010199 -1.444753 -1.900822 2.676292 -1.652397 4.938302 21.827613 -1.735308 -1.914190 4.299014 0.000005 -0.000019 -95.156481 -34.328404 -71.878069 -0.000006 -0.000003 -10.245108 91.993783 652.098050 84.584646 0.000002 0.000001 -12.703299 1370.757877 -195.772237 616.803785 -2.534601 -1.686396 5.195002 16.275823 13.924514 2.144147 -4.144102 0.000005 -0.000016 221.612946 173.593520 -102.713177 -0.000005 -0.000006 -10.116499 -177.215392 -164.198636 -187.685648 0.000011 -0.000003 -12.937803 -700.309186 -17.607347 -17.339682 2.175586 0.064502 -2.662885 -615.642980 -40.069653 117.952490 -0.000010 0.000003 -18.585802 38.145172 -210.820045 -87.694356 -0.000004 -0.000007 -18.979496 749.458954 -8.180469 -712.087656 -2.092401 -0.058096 -2.581191 1320.382445 -27.915644 -108.352741 -0.000001 -0.000005 -18.665005 -1521.935317 65.902631 -595.039742 0.000001 0.000005 -18.566595 721.836193 -9.172898 1.280128
63.243202 -30.791096 32.367493 2988.051487 50.731749 -13.624347 -0.153500 1.163106 7.852410 16.117023 35.625102 -6.044507 -0.000000 0.000005 3.343302 -6.325352 -12.930211 -0.024387 -0.000000 0.000005 7.785505 -5.820157 -2.485658 12.368054 -0.000009 -0.000001 2.173907 -2.956051 -1.450831 -1.892067 2.676293 -1.652400 4.938307 21.935178 -1.602298 -1.178627 4.299001 -0.000000 -0.000004 -95.180346 -33.177053 -71.339632 -0.000003 -0.000002 -10.245099 92.936526 652.062860 85.825097 0.000004 -0.000002 -12.703303 1370.674931 -195.718948 616.946672 -2.534599 -1.686391 5.195014 16.286870 13.970830 1.554125 -4.144103 0.000006 0.000010 221.359109 172.979855 -101.593238 0.000009 0.000004 -10.116499 -177.486810 -164.254179 -187.715059 -0.000006 0.000000 -12.937797 -699.788234 -17.613384 -17.389028 2.175596 0.064510 -2.662896 -615.419387 -39.908382 118.284260 -0.000015 -0.000008 -18.585804 37.939143 -210.164538 -87.484457 -0.000011 -0.000008 -18.979500 750.060939 -8.385504 -711.556103 -2.092402 -0.058093 -2.581187 1320.262671 -27.954617 -108.736769 -0.000002 -0.000002 -18.664999 -1522.312234 65.741547 -594.578240 0.000005 0.000009 -18.566593 721.795212 -9.248696 1.440668
63.131897 -30.803684 32.263195 2987.960782 50.640966 -13.739298 -0.153507 1.163106 7.852408 15.971904 35.658454 -6.022524 -0.000000 0.000000 3.343308 -6.165615 -13.037512 -0.012893 -0.000000 0.000001 7.785513 -6.027010 -2.323723 12.224380 0.000003 0.000003 2.173907 -2.855259 -1.423050 -1.937626 2.676290 -1.652403 4.938305 22.168619 -1.572128 -0.339807 4.299005 0.000000 -0.000004 -95.162628 -31.951458 -70.662098 0.000000 0.000004 -10.245100 94.014057 652.116518 87.227772 -0.000010 0.000005 -12.703285 1370.497237 -195.724467 616.891484 -2.534603 -1.686399 5.195001 16.321210 14.194205 1.050433 -4.144100 -0.000006 0.000009 221.135857 172.550140 -100.410734 0.000008 0.000005 -10.116497 -177.779551 -164.329201 -187.742844 0.000009 0.000001 -12.937799 -699.194335 -17.636389 -17.331315 2.175587 0.064496 -2.662899 -615.286335 -39.781638 118.588777 -0.000004 -0.000004 -18.585794 37.688608 -209.677204 -87.245203 -0.000002 -0.000002 -18.979504 750.574679 -8.609927 -710.988323 -2.092404 -0.058096 -2.581192 1320.103446 -27.960274 -109.106617 0.000004 -0.000002 -18.665001 -1522.608391 65.598851 -594.188537 0.000003 -0.000006 -18.566593 723.260479 -12.572323 -8.597810
63.021095 -30.812183 32.160297 2987.793361 50.545053 -13.794996 -0.153502 1.163108 7.852404 15.794630 35.695060 -5.988611 0.000008 0.000005 3.343295 -5.971671 -13.114806 -0.003027 0.000002 -0.000004 7.785498 -6.143470 -2.193072 12.102906 -0.000004 0.000001 2.173903 -2.774388 -1.382655 -1.978803 2.676291 -1.652395 4.938303 22.491157 -1.658079 0.406081 4.298994 -0.000002 -0.000008 -95.165067 -30.955312 -69.889118 -0.000004 -0.000002 -10.245093 95.017931 652.020950 88.583278 0.000004 0.000010 -12.703301 1370.437241 -195.644990 616.552106 -2.534602 -1.686392 5.194998 16.228712 14.344266 0.845605 -4.144103 0.000004 -0.000009 221.085055 172.386625 -99.442527 -0.000001 -0.000003 -10.116493 -178.123397 -164.455833 -187.726288 0.000004 0.000000 -12.937805 -698.093527 -17.812059 -17.650906 2.175596 0.064501 -2.662895 -615.127383 -39.656003 118.880358 -0.000015 -0.000010 -18.585812 37.454357 -209.357292 -87.001058 -0.000008 -0.000002 -18.979502 750.959902 -8.762539 -710.557202 -2.092402 -0.058096 -2.581192 1319.962361 -27.908568 -109.464539 0.000009 0.000001 -18.665014 -1522.983123 65.492662 -593.699823 0.000003 0.000001 -18.566593 723.317634 -12.600435 -8.537071
